<svg xmlns="http://www.w3.org/2000/svg" version="1.1"
     width="100"
     height="100" viewBox="0 0 1868.3901292596943 3156.678417547983">
    <rect fill="#07689f" width="100" height="100"/>
    <g transform="scale(7.833920877399138) translate(10, 10)">
        <defs id="SvgjsDefs1672"></defs>
        <g id="SvgjsG1673" transform="matrix(1.15,0,0,1.15,-5.75,0)" fill="#ffffff">
            <path xmlns="http://www.w3.org/2000/svg" fill-rule="evenodd"
                  d="M5,65 L100,0 L195, 65 L100, 10 z M5,253 L100,333 L195,248 L100, 323 z"></path>
        </g>
        <g id="SvgjsG1674"
           transform="matrix(1.1431324090200077,0,0,1.1431324090200077,52.12393677764352,97.04337791373558)"
           fill="#ffffff">
            <g xmlns="http://www.w3.org/2000/svg">
                <g>
                    <path d="M53.097,4.336c-17.742,0-32.133,14.191-32.133,31.698c0,0.926,0.041,1.839,0.122,2.746    c1.418-0.244,2.923-0.375,4.436-0.401c0.005,0,0.005,0,0.005,0c0.171-0.005,0.348-0.005,0.52-0.005    c3.211,0,6.436,0.497,8.861,1.468c0-0.33,0-2.326,0-4.277v-3.74c0-4.128,7.073-6.287,14.065-6.287    c6.987,0,14.061,2.159,14.061,6.287v3.659c0,3.152,0,7.109,0,7.109v8.97c0.14,0,0.284,0.005,0.429,0.01    c5.962,0.181,11.744,1.838,13.36,4.878c0.118,0.212,0.213,0.434,0.285,0.664c5.054-5.602,8.13-12.986,8.13-21.08    C85.237,18.527,70.852,4.336,53.097,4.336z"></path>
                </g>
                <g>
                    <path d="M34.885,42.918v-0.005c-0.022-0.009-0.041-0.022-0.067-0.036c-2.178-1.156-5.483-1.752-8.771-1.752    c-0.149,0-0.299,0-0.452,0c-0.005,0-0.005,0-0.005,0c-5.456,0.095-10.826,1.824-10.826,5.045c0,3.315,5.673,5.045,11.283,5.045    c3.288,0,6.594-0.592,8.771-1.752c0.234-0.122,0.451-0.253,0.654-0.389c0.678-0.447,1.197-0.967,1.509-1.55    c0.226-0.415,0.348-0.871,0.348-1.354C37.328,44.814,36.385,43.73,34.885,42.918z M26.046,48.717    c-5.705,0-8.781-1.807-8.781-2.547c0-0.736,3.076-2.548,8.781-2.548c4.015,0,6.729,0.899,7.985,1.685    c0.528,0.33,0.799,0.646,0.799,0.863c0,0.1-0.054,0.212-0.157,0.339C33.973,47.357,31,48.717,26.046,48.717z"></path>
                </g>
                <path d="M37.328,49.155v6.017c0,0.198-0.022,0.389-0.072,0.582c-0.637,2.529-5.415,4.494-11.21,4.494   c-6.233,0-11.283-2.271-11.283-5.076v-6.017c0,2.805,5.05,5.072,11.283,5.072c3.541,0,6.702-0.731,8.771-1.879   c1.062-0.592,1.838-1.287,2.227-2.051C37.233,49.933,37.328,49.549,37.328,49.155z"></path>
                <path d="M37.328,64.282c0,2.8-5.05,5.072-11.282,5.072c-6.233,0-11.283-2.272-11.283-5.072v-6.025c0,2.81,5.05,5.076,11.283,5.076   c6.232,0,11.282-2.267,11.282-5.076V64.282z"></path>
                <path d="M37.328,73.563c0,2.806-5.05,5.077-11.282,5.077c-6.233,0-11.283-2.271-11.283-5.077v-6.016c0,2.8,5.05,5.072,11.283,5.072   c6.232,0,11.282-2.272,11.282-5.072V73.563z"></path>
                <g>
                    <path d="M48.968,38.889c-5.763,0-11.599-1.784-11.599-5.189s5.836-5.186,11.599-5.186c5.764,0,11.604,1.78,11.604,5.186    S54.731,38.889,48.968,38.889z M48.968,31.079c-5.862,0-9.028,1.861-9.028,2.62s3.166,2.615,9.028,2.615    c5.863,0,9.029-1.856,9.029-2.615S54.831,31.079,48.968,31.079z"></path>
                </g>
                <path d="M60.571,36.717v6.188c0,2.877-5.198,5.217-11.604,5.217c-4.598,0-8.776-1.645-8.776-1.645s0.091-1.711,0.091-1.905   c0-1.59-1.129-2.864-2.913-3.812v-4.042c0,2.881,5.194,5.217,11.599,5.217C55.373,41.934,60.571,39.598,60.571,36.717z"></path>
                <path d="M60.566,46.079v5.524c-6.313,0.316-12.244,2.304-13.008,5.836c-2.963-0.186-7.276-2.209-7.276-2.435V49.53   c2.123,1.079,5.226,1.762,8.686,1.762C55.373,51.292,60.566,48.952,60.566,46.079z"></path>
                <g>
                    <path d="M74.253,58.338c-1.355-2.538-6.188-3.925-11.175-4.074c-0.303-0.018-0.605-0.018-0.903-0.018H61.94    c-5.764,0.045-11.522,1.743-12.164,4.964c-0.041,0.198-0.063,0.397-0.063,0.609c0,3.654,6.27,5.569,12.462,5.569    s12.453-1.915,12.453-5.569C74.628,59.286,74.496,58.794,74.253,58.338z M62.175,62.629c-6.301,0-9.702-1.996-9.702-2.81    c0-0.176,0.154-0.402,0.461-0.655c0.948-0.785,3.374-1.797,7.127-2.082c0.66-0.05,1.364-0.081,2.114-0.081    c0.308,0,0.609,0.009,0.903,0.019c0.393,0.009,0.772,0.035,1.143,0.059c4.986,0.365,7.651,2.019,7.651,2.741    C71.872,60.633,68.471,62.629,62.175,62.629z"></path>
                </g>
                <path d="M74.632,69.761c0,3.09-5.578,5.601-12.462,5.601c-6.879,0-12.452-2.511-12.452-5.601v-6.653   c0,3.099,5.573,5.605,12.452,5.605c6.884,0,12.462-2.507,12.462-5.605V69.761z"></path>
                <path d="M74.632,79.811c0,3.094-5.578,5.605-12.462,5.605c-6.879,0-12.452-2.512-12.452-5.605v-6.645   c0,3.09,5.573,5.602,12.452,5.602c6.884,0,12.462-2.512,12.462-5.602V79.811z"></path>
                <path d="M74.632,90.063c0,3.09-5.578,5.601-12.462,5.601c-6.879,0-12.452-2.511-12.452-5.601v-6.648   c0,3.089,5.573,5.601,12.452,5.601c6.884,0,12.462-2.512,12.462-5.601V90.063z"></path>
            </g>
        </g>
        <g id="SvgjsG1675" featureKey="nameFeature-0"
           transform="matrix(1.0092651234419365,0,0,1.0092651234419365,9,227.6154925646085)" fill="#ffffff">
            <path d="M5.36 39.92 c-2.96 0 -5.36 -2.4 -5.36 -5.36 l0 -17.76 c0 -2.96 2.4 -5.36 5.36 -5.36 s5.36 2.4 5.36 5.36 l0 1.6 l-3.8 0 l0 -1.6 c0 -0.84 -0.72 -1.56 -1.56 -1.56 s-1.56 0.72 -1.56 1.56 l0 17.76 c0 0.84 0.72 1.56 1.56 1.56 s1.56 -0.72 1.56 -1.56 l0 -2.56 l3.8 0 l0 2.56 c0 2.96 -2.4 5.36 -5.36 5.36 z M18.188000000000002 36.24 l5.52 0 l0 3.76 l-9.28 0 l0 -28.72 l3.76 0 l0 24.96 z M36.736000000000004 24.92 l-5.52 0 l0 11.28 l5.56 0 l0 3.8 l-9.36 0 l0 -28.56 l9.36 0 l0 3.8 l-5.56 0 l0 5.88 l5.52 0 l0 3.8 z M50.204 40 l-1.44 -9.88 l-4.04 0 l-1.32 9.88 l-3.84 0 l4.32 -28.6 l5.16 0 l5 28.6 l-3.84 0 z M45.244 26.32 l2.96 0 l-1.52 -10.4 z M68.152 40.08 l-4.08 0 l-2.2 -6.04 l-0.88 0 l0 6.04 l-3.8 0 l0 -28.64 l5.96 0 c2.64 0 4.76 2.12 4.76 4.76 l0 13.08 c0 1.72 -0.88 3.2 -2.24 4.04 z M60.992 15.239999999999998 l0 15 l2.16 0 c0.52 0 0.96 -0.44 0.96 -0.96 l0 -13.08 c0 -0.52 -0.44 -0.96 -0.96 -0.96 l-2.16 0 z M77.22 39.92 c-2.96 0 -5.36 -2.4 -5.36 -5.36 l0 -17.76 c0 -2.96 2.4 -5.36 5.36 -5.36 s5.36 2.4 5.36 5.36 l0 1.6 l-3.8 0 l0 -1.6 c0 -0.84 -0.72 -1.56 -1.56 -1.56 s-1.56 0.72 -1.56 1.56 l0 17.76 c0 0.84 0.72 1.56 1.56 1.56 s1.56 -0.72 1.56 -1.56 l0 -2.56 l3.8 0 l0 2.56 c0 2.96 -2.4 5.36 -5.36 5.36 z M91.688 40.04 c-3 0 -5.4 -2.44 -5.4 -5.4 l0 -17.96 c0 -2.96 2.4 -5.36 5.4 -5.36 c2.96 0 5.36 2.4 5.36 5.36 l0 17.96 c0 2.96 -2.4 5.4 -5.36 5.4 z M91.688 15.120000000000001 c-0.88 0 -1.56 0.72 -1.56 1.56 l0 17.96 c0 0.88 0.68 1.56 1.56 1.56 c0.84 0 1.56 -0.68 1.56 -1.56 l0 -17.96 c0 -0.84 -0.72 -1.56 -1.56 -1.56 z M106.636 40.08 c-3.24 0 -5.88 -2.64 -5.88 -5.88 l0 -22.72 l3.8 0 l0 22.72 c0 1.16 0.92 2.12 2.08 2.12 s2.08 -0.96 2.08 -2.12 l0 -22.72 l3.8 0 l0 22.72 c0 3.24 -2.64 5.88 -5.88 5.88 z M125.504 33.44 l0.16 -22.16 l3.84 0 l-0.24 28.88 l-5.96 0 l-3.24 -22.36 l0 22.36 l-3.84 0 l0 -28.88 l6.2 0 z M147.052 11.36 l0 3.84 l-4.76 0 l0 24.84 l-3.84 0 l0 -24.84 l-5.24 0 l0 -3.84 l13.84 0 z M154.51999999999998 36.24 l5.52 0 l0 3.76 l-9.28 0 l0 -28.72 l3.76 0 l0 24.96 z M167.548 11.36 l0 28.48 l-3.8 0 l0 -28.48 l3.8 0 z M185.096 11.36 l0 3.84 l-4.76 0 l0 24.84 l-3.84 0 l0 -24.84 l-5.24 0 l0 -3.84 l13.84 0 z M198.124 24.92 l-5.52 0 l0 11.28 l5.56 0 l0 3.8 l-9.36 0 l0 -28.56 l9.36 0 l0 3.8 l-5.56 0 l0 5.88 l5.52 0 l0 3.8 z"></path>
        </g>
    </g>
</svg>
	